Movie Info: http://www.imdb.com/title/tt0401711/


General
Complete name                    : Paris, je t'aime (Paris, I Love You) 2006 480p BRRip H.264 AAC MukE (Pure RG)
Format                           : MPEG-4
Format profile                   : Base Media
Codec ID                         : isom
File size                        : 401 MiB
Duration                         : 2h 0mn
Overall bit rate                 : 465 Kbps
Encoded date                     : UTC 2011-04-03 07:39:05
Tagged date                      : UTC 2011-04-03 07:39:05

Video
ID                               : 1
Format                           : AVC
Format/Info                      : Advanced Video Codec
Format profile                   : High@L4.2
Format settings, CABAC           : Yes
Format settings, ReFrames        : 3 frames
Format settings, GOP             : N=16
Codec ID                         : avc1
Codec ID/Info                    : Advanced Video Coding
Duration                         : 2h 0mn
Bit rate mode                    : Variable
Bit rate                         : 398 Kbps
Maximum bit rate                 : 2 178 Kbps
Width                            : 800 pixels
Height                           : 440 pixels
Display aspect ratio             : 16:9
Frame rate mode                  : Constant
Frame rate                       : 23.976 fps
Color space                      : YUV
Chroma subsampling               : 4:2:0
Bit depth                        : 8 bits
Scan type                        : Progressive
Bits/(Pixel*Frame)               : 0.047
Stream size                      : 343 MiB (86%)
Writing library                  : x264 core 114 r1913 5fd3dce


Audio
ID                               : 2
Format                           : AAC
Format/Info                      : Advanced Audio Codec
Format version                   : Version 4
Format profile                   : LC
Format settings, SBR             : No
Codec ID                         : 40
Duration                         : 2h 0mn
Bit rate mode                    : Variable
Bit rate                         : 63.7 Kbps
Maximum bit rate                 : 122 Kbps
Channel(s)                       : 2 channels
Channel positions                : Front: L R
Sampling rate                    : 48.0 KHz
Compression mode                 : Lossy
Stream size                      : 54.8 MiB (14%)

Language                         : French

Subtitles                        : English
